<mxfile host="app.diagrams.net" modified="2023-05-09T07:30:56.186Z" agent="Mozilla/5.0 (Macintosh; Intel Mac OS X 10_15_7) AppleWebKit/537.36 (KHTML, like Gecko) Chrome/112.0.0.0 Safari/537.36" etag="1HILVoVeW1FBm0TawBQ0" version="21.2.3" type="github">
  <diagram id="C5RBs43oDa-KdzZeNtuy" name="Page-1">
    <mxGraphModel dx="2359" dy="988" grid="1" gridSize="10" guides="1" tooltips="1" connect="1" arrows="1" fold="1" page="1" pageScale="1" pageWidth="827" pageHeight="1169" math="0" shadow="0">
      <root>
        <mxCell id="WIyWlLk6GJQsqaUBKTNV-0" />
        <mxCell id="WIyWlLk6GJQsqaUBKTNV-1" parent="WIyWlLk6GJQsqaUBKTNV-0" />
        <mxCell id="ql3k3Dgkn7e3friNM4CU-59" value="" style="edgeStyle=orthogonalEdgeStyle;rounded=0;orthogonalLoop=1;jettySize=auto;html=1;entryX=0;entryY=0.5;entryDx=0;entryDy=0;" edge="1" parent="WIyWlLk6GJQsqaUBKTNV-1" source="zkfFHV4jXpPFQw0GAbJ--0" target="ql3k3Dgkn7e3friNM4CU-3">
          <mxGeometry relative="1" as="geometry" />
        </mxCell>
        <mxCell id="zkfFHV4jXpPFQw0GAbJ--0" value="Controller" style="swimlane;fontStyle=1;align=center;verticalAlign=top;childLayout=stackLayout;horizontal=1;startSize=26;horizontalStack=0;resizeParent=1;resizeLast=0;collapsible=1;marginBottom=0;rounded=0;shadow=0;strokeWidth=1;fontFamily=Helvetica;fontSize=14;fillColor=#d5e8d4;strokeColor=#82b366;" parent="WIyWlLk6GJQsqaUBKTNV-1" vertex="1">
          <mxGeometry x="-707" y="136" width="160" height="44" as="geometry">
            <mxRectangle x="230" y="140" width="160" height="26" as="alternateBounds" />
          </mxGeometry>
        </mxCell>
        <mxCell id="ql3k3Dgkn7e3friNM4CU-2" value="Service" style="swimlane;fontStyle=1;align=center;verticalAlign=top;childLayout=stackLayout;horizontal=1;startSize=26;horizontalStack=0;resizeParent=1;resizeLast=0;collapsible=1;marginBottom=0;rounded=0;shadow=0;strokeWidth=1;fillColor=#d5e8d4;strokeColor=#82b366;fontSize=14;" vertex="1" parent="WIyWlLk6GJQsqaUBKTNV-1">
          <mxGeometry x="-438.5" y="136" width="160" height="52" as="geometry">
            <mxRectangle x="550" y="140" width="160" height="26" as="alternateBounds" />
          </mxGeometry>
        </mxCell>
        <mxCell id="ql3k3Dgkn7e3friNM4CU-3" value="Repository" style="text;align=left;verticalAlign=top;spacingLeft=4;spacingRight=4;overflow=hidden;rotatable=0;points=[[0,0.5],[1,0.5]];portConstraint=eastwest;" vertex="1" parent="ql3k3Dgkn7e3friNM4CU-2">
          <mxGeometry y="26" width="160" height="26" as="geometry" />
        </mxCell>
        <mxCell id="ql3k3Dgkn7e3friNM4CU-16" value="&lt;font style=&quot;font-size: 14px;&quot;&gt;Domain&lt;/font&gt;" style="swimlane;whiteSpace=wrap;html=1;fillColor=#ffe6cc;strokeColor=#d79b00;startSize=23;" vertex="1" collapsed="1" parent="WIyWlLk6GJQsqaUBKTNV-1">
          <mxGeometry x="-150" y="230" width="100" height="30" as="geometry">
            <mxRectangle x="-23.5" y="310" width="103" height="40" as="alternateBounds" />
          </mxGeometry>
        </mxCell>
        <mxCell id="ql3k3Dgkn7e3friNM4CU-22" value="" style="endArrow=classic;html=1;rounded=0;exitX=1;exitY=0.5;exitDx=0;exitDy=0;entryX=0;entryY=0.75;entryDx=0;entryDy=0;" edge="1" parent="WIyWlLk6GJQsqaUBKTNV-1" source="ql3k3Dgkn7e3friNM4CU-3" target="ql3k3Dgkn7e3friNM4CU-37">
          <mxGeometry width="50" height="50" relative="1" as="geometry">
            <mxPoint x="-227" y="405" as="sourcePoint" />
            <mxPoint x="-47" y="162" as="targetPoint" />
          </mxGeometry>
        </mxCell>
        <mxCell id="ql3k3Dgkn7e3friNM4CU-24" value="&lt;font style=&quot;font-size: 14px;&quot;&gt;Dao&lt;/font&gt;" style="swimlane;whiteSpace=wrap;html=1;fillColor=#d5e8d4;strokeColor=#82b366;" vertex="1" parent="WIyWlLk6GJQsqaUBKTNV-1">
          <mxGeometry x="50" y="136" width="190" height="60" as="geometry" />
        </mxCell>
        <mxCell id="ql3k3Dgkn7e3friNM4CU-25" value="JpaRepository" style="text;html=1;align=center;verticalAlign=middle;resizable=0;points=[];autosize=1;strokeColor=none;fillColor=none;" vertex="1" parent="ql3k3Dgkn7e3friNM4CU-24">
          <mxGeometry y="24" width="100" height="30" as="geometry" />
        </mxCell>
        <mxCell id="ql3k3Dgkn7e3friNM4CU-29" value="" style="endArrow=classic;html=1;rounded=0;entryX=0;entryY=0.5;entryDx=0;entryDy=0;" edge="1" parent="WIyWlLk6GJQsqaUBKTNV-1" target="ql3k3Dgkn7e3friNM4CU-38">
          <mxGeometry width="50" height="50" relative="1" as="geometry">
            <mxPoint x="240" y="159" as="sourcePoint" />
            <mxPoint x="280" y="162" as="targetPoint" />
          </mxGeometry>
        </mxCell>
        <mxCell id="ql3k3Dgkn7e3friNM4CU-31" value="&lt;b&gt;&lt;font style=&quot;font-size: 20px;&quot;&gt;DB&lt;/font&gt;&lt;/b&gt;" style="shape=cylinder3;whiteSpace=wrap;html=1;boundedLbl=1;backgroundOutline=1;size=15;fillColor=#e1d5e7;strokeColor=#9673a6;" vertex="1" parent="WIyWlLk6GJQsqaUBKTNV-1">
          <mxGeometry x="610" y="177" width="60" height="80" as="geometry" />
        </mxCell>
        <mxCell id="ql3k3Dgkn7e3friNM4CU-35" value="" style="endArrow=classic;html=1;rounded=0;exitX=1;exitY=0.5;exitDx=0;exitDy=0;entryX=0;entryY=0;entryDx=0;entryDy=52.5;entryPerimeter=0;" edge="1" parent="WIyWlLk6GJQsqaUBKTNV-1" source="ql3k3Dgkn7e3friNM4CU-38" target="ql3k3Dgkn7e3friNM4CU-31">
          <mxGeometry width="50" height="50" relative="1" as="geometry">
            <mxPoint x="700" y="157" as="sourcePoint" />
            <mxPoint x="600" y="482.5" as="targetPoint" />
          </mxGeometry>
        </mxCell>
        <mxCell id="ql3k3Dgkn7e3friNM4CU-61" value="" style="edgeStyle=orthogonalEdgeStyle;rounded=0;orthogonalLoop=1;jettySize=auto;html=1;entryX=0.003;entryY=0.111;entryDx=0;entryDy=0;entryPerimeter=0;" edge="1" parent="WIyWlLk6GJQsqaUBKTNV-1" source="ql3k3Dgkn7e3friNM4CU-37" target="ql3k3Dgkn7e3friNM4CU-25">
          <mxGeometry relative="1" as="geometry">
            <mxPoint x="50" y="160" as="targetPoint" />
          </mxGeometry>
        </mxCell>
        <mxCell id="ql3k3Dgkn7e3friNM4CU-37" value="«interface»&lt;br&gt;&lt;b&gt;Repository&lt;/b&gt;" style="html=1;whiteSpace=wrap;fillColor=#dae8fc;strokeColor=#6c8ebf;" vertex="1" parent="WIyWlLk6GJQsqaUBKTNV-1">
          <mxGeometry x="-170" y="137" width="140" height="50" as="geometry" />
        </mxCell>
        <mxCell id="ql3k3Dgkn7e3friNM4CU-38" value="«interface»&lt;br&gt;&lt;b&gt;JpaRepository&lt;/b&gt;" style="html=1;whiteSpace=wrap;fillColor=#dae8fc;strokeColor=#6c8ebf;" vertex="1" parent="WIyWlLk6GJQsqaUBKTNV-1">
          <mxGeometry x="290" y="134" width="210" height="50" as="geometry" />
        </mxCell>
        <mxCell id="ql3k3Dgkn7e3friNM4CU-42" value="ui" style="shape=umlFrame;whiteSpace=wrap;html=1;pointerEvents=0;" vertex="1" parent="WIyWlLk6GJQsqaUBKTNV-1">
          <mxGeometry x="-760" y="80" width="240" height="295" as="geometry" />
        </mxCell>
        <mxCell id="ql3k3Dgkn7e3friNM4CU-43" value="&lt;font style=&quot;font-size: 14px;&quot;&gt;Entity&lt;/font&gt;" style="swimlane;whiteSpace=wrap;html=1;fillColor=#ffe6cc;strokeColor=#d79b00;" vertex="1" parent="WIyWlLk6GJQsqaUBKTNV-1">
          <mxGeometry x="184.5" y="245" width="160" height="40" as="geometry" />
        </mxCell>
        <mxCell id="ql3k3Dgkn7e3friNM4CU-44" value="application" style="shape=umlFrame;whiteSpace=wrap;html=1;pointerEvents=0;width=130;height=25;" vertex="1" parent="WIyWlLk6GJQsqaUBKTNV-1">
          <mxGeometry x="-497" y="80" width="277" height="295" as="geometry" />
        </mxCell>
        <mxCell id="ql3k3Dgkn7e3friNM4CU-45" value="domain" style="shape=umlFrame;whiteSpace=wrap;html=1;pointerEvents=0;fillColor=#fad9d5;strokeColor=#ae4132;" vertex="1" parent="WIyWlLk6GJQsqaUBKTNV-1">
          <mxGeometry x="-200" y="80" width="190" height="295" as="geometry" />
        </mxCell>
        <mxCell id="ql3k3Dgkn7e3friNM4CU-46" value="persistance" style="shape=umlFrame;whiteSpace=wrap;html=1;pointerEvents=0;width=111;height=35;fillColor=#fad9d5;strokeColor=#ae4132;" vertex="1" parent="WIyWlLk6GJQsqaUBKTNV-1">
          <mxGeometry x="9" y="80" width="511" height="295" as="geometry" />
        </mxCell>
        <mxCell id="ql3k3Dgkn7e3friNM4CU-62" value="&lt;h1&gt;도메인과 엔티티의 분리&lt;/h1&gt;&lt;div&gt;도메인 모델과 데이터베이스 엔티티를 분리해 도메인 로직과 엔티티 로직이 겹치지 않도록 관리&lt;/div&gt;" style="text;html=1;spacing=5;spacingTop=-20;whiteSpace=wrap;overflow=hidden;rounded=0;fillColor=#e1d5e7;strokeColor=#9673a6;" vertex="1" parent="WIyWlLk6GJQsqaUBKTNV-1">
          <mxGeometry x="-160" y="300" width="480" height="110" as="geometry" />
        </mxCell>
      </root>
    </mxGraphModel>
  </diagram>
</mxfile>
